<svg width="44" height="48" viewBox="0 0 44 48" fill="none" xmlns="http://www.w3.org/2000/svg">
  <path d="M15.9558 40.936C15.9558 40.54 15.9118 40.364 15.7358 40.364L14.7238 40.848C14.7238 40.628 14.5918 40.496 14.3718 40.408L14.0198 40.364C13.7118 40.364 13.5798 40.408 13.1398 40.672C13.0078 40.408 12.8318 40.1 12.6998 39.836C11.5558 37.636 10.3678 34.336 9.83977 32.884C9.57577 32.136 9.31177 30.596 9.00377 28.264C9.35577 28.484 9.61977 28.572 9.75177 28.572C9.92777 28.572 10.1478 28.264 10.3238 27.648C10.4118 27.78 10.5878 27.824 10.8078 27.824C10.9398 27.824 11.1158 27.78 11.2038 27.648L11.9078 26.592L12.6998 26.856H12.7438C12.8318 26.856 12.9638 26.724 13.1838 26.592C13.4038 26.46 13.5798 26.372 13.7118 26.372L13.8438 26.416C14.5478 26.768 15.0318 27.384 15.2518 28.352C15.7798 30.596 16.2638 31.696 16.8358 31.696C17.3198 31.696 17.9798 31.124 18.6838 30.024C19.3878 28.924 20.0918 27.428 20.8838 25.624C20.9278 25.976 20.9718 26.152 21.0598 26.152C21.3238 26.152 21.9838 24.612 23.6118 22.016C26.0318 18.1 32.0158 10.576 33.5558 9.52C34.6998 8.728 35.5798 7.98 36.1958 7.32C36.1078 7.76 36.0198 8.068 36.0198 8.2C36.0198 8.332 36.1078 8.376 36.1958 8.376L37.4278 7.76V7.936C37.4278 8.156 37.4718 8.288 37.6038 8.288C37.7798 8.288 38.4838 7.584 38.5718 7.32L38.4838 7.936L39.9798 7.056L39.6278 7.848C40.0678 7.54 40.4198 7.364 40.6398 7.364C40.8598 7.364 40.9918 7.716 40.9918 7.936C40.9918 8.288 40.6838 8.772 40.1998 9.388C39.6718 10.092 38.3518 11.456 34.3918 15.988C32.6758 17.924 25.0638 28.264 23.6118 30.728L20.8838 35.348C19.6958 37.328 18.9478 38.604 18.5518 39.088C18.1558 39.572 17.6718 40.056 17.0998 40.496L16.7038 40.276L16.3518 40.496L15.9558 40.936Z" fill="black"/>
  <circle cx="16" cy="31" r="15.5" stroke="black"/>
</svg>
