<svg width="92" height="104"
     viewBox="0 0 92 104"
     fill="#FFF"
     xmlns="http://www.w3.org/2000/svg">
  <path d="M0.144043 86.9212C0.144043 95.8112 7.37738 103.042 16.2674 103.042H81.8574C82.6624 103.042 83.3157 102.388 83.3157 101.583V97.1208C83.3157 96.8175 83.202 96.5521 83.0445 96.3217C83.027 96.2954 83.0328 96.2604 83.0153 96.2342C80.9591 93.5508 79.8711 90.3308 79.8711 86.9212C79.8711 83.5117 80.9591 80.2917 83.0153 77.6054C83.0328 77.5821 83.027 77.5471 83.0445 77.5208C83.202 77.2875 83.3157 77.0221 83.3157 76.7187V73.7146H89.8403C90.6453 73.7146 91.2986 73.0612 91.2986 72.2562V67.7937C91.2986 67.4904 91.1849 67.225 91.0274 66.9917C91.0099 66.9654 91.0186 66.9304 90.9982 66.9071C88.942 64.2208 87.857 61.0008 87.857 57.5912C87.857 54.1817 88.9449 50.9617 90.9982 48.2754C91.0157 48.2521 91.0099 48.2171 91.0274 48.1908C91.1849 47.9575 91.2986 47.6921 91.2986 47.3887V42.9262C91.2986 42.1212 90.6453 41.4679 89.8403 41.4679H74.5949V27.8792L86.107 22.4483V32.4467C84.4649 33.0475 83.2807 34.6108 83.2807 36.46C83.2807 38.8225 85.2028 40.7446 87.5653 40.7446C89.9307 40.7446 91.8528 38.8225 91.8528 36.46C91.8528 34.6108 90.6686 33.0475 89.0236 32.4467V20.15C89.0236 19.8933 88.939 19.6658 88.8253 19.4558C88.7961 19.4004 88.7611 19.3567 88.7232 19.3071C88.5978 19.135 88.4461 18.995 88.2595 18.8929C88.2361 18.8783 88.2245 18.8492 88.1982 18.8375L51.4074 1.10415C51.0049 0.911653 50.5411 0.911653 50.1386 1.10415L13.3449 18.8375C12.8403 19.0796 12.5165 19.5958 12.5195 20.1558C12.5224 20.7187 12.8461 21.2292 13.3565 21.4683L26.9511 27.8792V41.4679H24.2503C19.9336 41.4679 15.8795 43.1421 12.8403 46.1812C9.80113 49.2204 8.12988 53.2717 8.12988 57.5912C8.12988 63.1154 10.924 67.995 15.1736 70.9029C11.274 71.1654 7.63404 72.7317 4.86029 75.5083C1.81821 78.5475 0.144043 82.5987 0.144043 86.9212ZM77.0682 85.4629H14.354C13.549 85.4629 12.8957 86.1162 12.8957 86.9212C12.8957 87.7262 13.549 88.3796 14.354 88.3796H77.0682C77.2695 90.9579 77.984 93.4225 79.212 95.6625H16.7515C11.9303 95.6625 8.00738 91.7425 8.00738 86.9212C8.00738 84.5792 8.91738 82.3829 10.5565 80.7408C12.2336 79.0871 14.4328 78.1771 16.7515 78.1771H79.2149C77.984 80.42 77.2724 82.8817 77.0682 85.4629ZM85.054 56.1329H22.337C21.532 56.1329 20.8786 56.7862 20.8786 57.5912C20.8786 58.3962 21.532 59.0496 22.337 59.0496H85.054C85.2553 61.6308 85.9699 64.0925 87.1978 66.3354H24.7345C19.9132 66.3354 15.9903 62.4125 15.9903 57.5912C15.9903 55.2521 16.9003 53.0529 18.5395 51.4108C20.2165 49.7571 22.4157 48.8471 24.7345 48.8471H87.1949C85.967 51.09 85.2553 53.5546 85.054 56.1329ZM87.5682 37.8308C86.8128 37.8308 86.2003 37.2183 86.2003 36.4629C86.2003 35.7075 86.8128 35.095 87.5682 35.095C88.3236 35.095 88.939 35.7075 88.939 36.4629C88.939 37.2183 88.3236 37.8308 87.5682 37.8308ZM17.3699 20.1354L50.7774 4.0354L84.182 20.1354L74.5978 24.6562V20.4329C74.5978 20.2433 74.557 20.0625 74.4899 19.8933C74.4665 19.8321 74.4257 19.7854 74.3936 19.7271C74.3382 19.6279 74.2828 19.5287 74.204 19.4471C74.1545 19.3946 74.0932 19.3537 74.0378 19.3071C73.9561 19.2429 73.8745 19.1787 73.7782 19.1321C73.7082 19.0971 73.6324 19.0767 73.5566 19.0533C73.4924 19.0329 73.437 18.9979 73.3699 18.9892L68.0645 18.1404C56.5932 16.2971 44.9615 16.2942 33.4903 18.1404L28.182 18.9892C28.1149 19.0008 28.0595 19.0358 27.9953 19.0533C27.9195 19.0767 27.8436 19.0971 27.7736 19.1321C27.6774 19.1787 27.5986 19.24 27.514 19.3071C27.4557 19.3537 27.3974 19.3917 27.3478 19.4471C27.269 19.5317 27.2136 19.6279 27.1582 19.7271C27.1261 19.7825 27.0853 19.8321 27.062 19.8933C26.9949 20.0625 26.954 20.2404 26.954 20.4329V24.6562L17.3699 20.1354ZM29.8678 26.9575V21.6783L33.9511 21.025C45.1132 19.2312 56.4328 19.2312 67.6007 21.025L71.6782 21.6754V26.9575V41.4708H29.8678V26.9575ZM11.0465 57.5912C11.0465 54.0504 12.4174 50.7283 14.9024 48.2433C17.3932 45.7554 20.7124 44.3846 24.2503 44.3846H28.4095H73.1365H88.382V45.9304H24.7345C21.6457 45.9304 18.7174 47.1408 16.4861 49.34C14.287 51.5421 13.0765 54.4704 13.0765 57.5883C13.0765 64.0167 18.3061 69.2492 24.7374 69.2492H88.3849V70.795H81.8603H24.2503C16.9674 70.7979 11.0465 64.8742 11.0465 57.5912ZM16.2674 73.7146H24.2503H80.399V75.2604H16.7515C13.6628 75.2604 10.7374 76.4708 8.50321 78.67C6.30404 80.8692 5.09363 83.7975 5.09363 86.9183C5.09363 93.3467 10.3232 98.5762 16.7545 98.5762H80.402V100.122H16.2674C8.98446 100.122 3.06071 94.1983 3.06071 86.9183C3.06071 83.3775 4.43154 80.0554 6.91946 77.5704C9.40738 75.0854 12.7265 73.7146 16.2674 73.7146Z" fill="white"/>
</svg>
