<svg viewBox="0 0 207 270" fill="none" xmlns="http://www.w3.org/2000/svg">
  <path d="M1.99997 239.107L15.9794 221.569L55.8542 157.871C60.8613 145.134 70.6924 141.193 96.9322 138.13L98.8269 128.272C92.613 125.811 88.2262 122.827 84.6949 118.101M166.5 240L158.062 177.516C152.704 160.192 143.847 153.358 123.762 143.287L125.657 133.429C131.491 132.889 136.187 131.943 140.258 130.329M76.9515 101.542C76.4006 99.845 75.8508 98.0384 75.2947 96.1132C59.8388 83.7801 60.9232 77.5924 73.257 67.3281C78.1723 19.4721 94.0915 12.4103 133.567 16.4546C172.865 26.1172 184.884 38.6077 170.72 86.0611C178.403 96.1418 179.643 101.847 159.981 112.391C158.159 115.001 156.428 117.302 154.716 119.329M76.9515 101.542C56.293 97.9761 50.2012 105.654 42.0793 124.18L50.475 125.793L40.7811 130.934C49.9505 142.329 58.7452 141.221 84.6949 118.101M76.9515 101.542C79.3124 108.817 81.6949 114.087 84.6949 118.101M140.258 130.329C150.877 157.149 159.512 160.582 177.12 157.139L171.665 149.087L178.418 150.385C180.179 126.44 177.028 127.258 173.109 122.864C166.387 116.821 162.427 115.334 154.716 119.329M140.258 130.329C145.806 128.127 150.192 124.683 154.716 119.329M33.5 239.107L68.5472 178.482L55.5 241.107M128.5 240L135.53 191.357L147.5 240" stroke="#FFE6C8" stroke-width="3"/>
  <path d="M104.53 110.577C113.577 118.022 118.509 118.872 127.034 114.902" stroke="#FFE6C8" stroke-width="3"/>
  <path d="M114.908 101.965C115.262 96.0912 116.487 94.9186 120.862 97.354" stroke="#FFE6C8" stroke-width="3"/>
  <path d="M93.3939 69.1913C99.2641 67.138 101.707 68.3372 105.669 71.5505" stroke="#FFE6C8" stroke-width="4"/>
  <path d="M139.423 78.0384C145.733 76.0697 148.391 77.3102 152.721 80.5943" stroke="#FFE6C8" stroke-width="4"/>
  <ellipse cx="97.2692" cy="82.134" rx="6.24964" ry="7.81206" transform="rotate(10.8799 97.2692 82.134)" fill="#FFE6C8"/>
  <ellipse cx="144.322" cy="91.1779" rx="6.24964" ry="7.81206" transform="rotate(10.8799 144.322 91.1779)" fill="#FFE6C8"/>
  <path d="M89.9717 75.958L93.2768 80.836" stroke="#FFE6C8" stroke-width="4"/>
  <path d="M152.964 88.4268L148.745 91.0986" stroke="#FFE6C8" stroke-width="4"/>
  <path d="M83.1253 61.9143C99.901 62.9192 109.896 59.0253 129.008 42.0951C136.737 60.3334 143.646 67.702 162.551 73.6006" stroke="#FFE6C8" stroke-width="3"/>
</svg>
