<svg
  viewBox="0 0 258 199"
  fill="none"
  xmlns="http://www.w3.org/2000/svg">
  <path d="M81.2333 95.0115L4.43519 88.5645L103.283 7.07902L232.537 1.71542L188.171 61.1101M81.2333 95.0115L158.031 101.458L188.171 61.1101M81.2333 95.0115L92.9253 144.218C115.849 152.806 130.205 154.177 157.89 151.876C188.438 134.092 196.748 121.832 206.798 98.7235L188.171 61.1101M124.769 46.1599C118.751 45.9769 116.689 45.2172 113.183 43.7746C113.34 40.7483 113.501 39.0668 117.34 36.8052C122.639 36.1697 125.319 36.4897 129.726 37.945M124.769 46.1599L129.726 37.945M124.769 46.1599L195.649 46.3666M129.726 37.945L195.649 46.3666M195.649 46.3666C200.629 47.0862 204.977 47.623 203.528 51.916C202.079 56.209 205.818 58.7429 204.463 62.9743M204.463 62.9743C203.221 67.7932 203.47 70.1971 205.398 74.0327C208.263 77.9346 209.871 78.2864 212.738 78.0518L241.308 196.656C249.523 198.604 252.661 197.213 256.258 191.388L214.453 77.4473C214.301 74.438 213.707 72.929 211.995 70.4696C209.975 66.6982 208.275 65.0941 204.463 62.9743Z" stroke="#FFE6C8" stroke-width="3"/>
</svg>
