<?xml version="1.0" encoding="iso-8859-1"?>
<svg fill="#FFF"
     id="Layer_1"
     xmlns="http://www.w3.org/2000/svg"
     viewBox="0 0 512 512" xml:space="preserve">
<g>
	<g>
		<g>
			<path d="M0,474.668h119.742V274.874H0V474.668z M15.673,290.547h88.395v168.447H15.673V290.547z"/>
      <rect x="31.869" y="408.409" width="15.673" height="31.347"/>
      <path d="M486.368,306.895H360.069v15.673h126.299c5.492,0,9.959,4.468,9.959,9.959c0,4.687-3.193,8.682-7.766,9.714
				l-231.912,52.367l-112.892-45.156v-58.905h184.29c4.507,0,8.174,3.667,8.174,8.173c0,4.507-3.668,8.174-8.174,8.174h-80.052
				c-13.149,0-23.848,10.698-23.848,23.848h15.673c0-4.507,3.667-8.174,8.174-8.174h80.052c13.15,0,23.848-10.698,23.848-23.848
				s-10.698-23.847-23.848-23.847H128.085v85.189l127.266,50.906l236.664-53.44C503.782,354.872,512,344.59,512,332.527
				C512,318.393,500.501,306.895,486.368,306.895z"/>
      <path d="M368.074,269.777l114.184-114.184c27.017-27.018,27.017-70.979,0-97.997c-27.018-27.018-70.98-27.018-97.998,0
				l-16.187,16.188l-16.186-16.188c-27.018-27.018-70.981-27.018-97.998,0c-27.018,27.018-27.018,70.979,0,97.997L368.074,269.777z
				 M264.973,68.679c10.127-10.127,23.593-15.706,37.915-15.706c14.322,0,27.788,5.578,37.915,15.706l27.271,27.27l27.271-27.27
				c10.127-10.127,23.593-15.706,37.915-15.706c14.322,0,27.788,5.578,37.915,15.706c10.128,10.128,15.706,23.594,15.706,37.916
				s-5.578,27.788-15.706,37.916L368.074,247.612L264.973,144.511C244.065,123.603,244.065,89.585,264.973,68.679z"/>
      <path
        d="M456.3,106.433h15.673c0-17.763-13.785-31.692-31.549-31.692v15.673C448.784,90.415,456.3,98.074,456.3,106.433z"/>
		</g>
	</g>
</g>
</svg>
