<svg viewBox="0 0 240 240" fill="none" xmlns="http://www.w3.org/2000/svg">
  <path d="M51.7186 28.6964C33.8596 33.9378 30.5567 40.3971 33.4418 56.508C22.6632 68.0722 20.5912 75.1805 30.276 89.9662C29.224 111.026 35.2873 115.676 47.1191 122.873C53.5216 138.494 59.5934 142.325 75.6431 138.957C87.0504 150.141 94.2362 150.986 108.891 140.396C124.628 143.345 131.824 141.817 137.76 125.62C156.191 120.476 160.503 114.322 157.133 97.2469C168.68 84.044 169.37 77.1155 158.757 65.7315C161.193 48.2691 157.034 41.3023 141.914 32.8249C137.368 17.7634 132.525 13.0971 116.242 17.3571C102.418 3.2657 94.611 3.51117 80.5873 13.9201C63.3708 9.79055 57.2105 13.2477 51.7186 28.6964Z" stroke="#FFE6C8" stroke-width="2"/>
  <path d="M144.829 50.7829C158.674 77.8319 147.316 111.375 119.375 125.677C91.4337 139.978 57.5822 129.575 43.7373 102.526C29.8923 75.4773 41.2504 41.9342 69.1916 27.6326C97.1328 13.3311 130.984 23.7338 144.829 50.7829Z" stroke="#FFE6C8" stroke-width="2"/>
  <path d="M91.0426 83.0726C88.6796 75.3956 88.5149 67.4261 86.9609 59.5836C85.8929 54.1944 80.4544 38.6826 82.8691 43.6175C84.0721 46.0762 84.6998 49.2631 85.4466 51.8254C87.5358 58.9935 89.6602 66.1395 91.9219 73.2559C94.8224 82.3823 97.0372 92.2182 100.932 100.986" stroke="#FFE6C8" stroke-width="2" stroke-linecap="round"/>
  <path d="M93.7261 110.862C100.098 101.976 110.167 95.0941 120.41 91.4563" stroke="#FFE6C8" stroke-width="2" stroke-linecap="round"/>
  <path d="M105.082 233.966L88.5912 156.981C94.5257 166.47 99.6122 163.064 109.546 152.703C122.349 159.818 126.426 158.441 131.542 152.267L146.715 225.32L122.247 215.048L105.082 233.966Z" stroke="#FFE6C8" stroke-width="2"/>
  <path d="M185.07 204.726L136.075 149.851C143.929 151.279 146.838 148.147 148.518 133.315C159.171 130.066 163.094 127.101 165.754 119.409L216.596 175.649L191.635 178.951L185.07 204.726Z" stroke="#FFE6C8" stroke-width="2"/>
</svg>
