<svg viewBox="0 0 347 288" fill="none" xmlns="http://www.w3.org/2000/svg">
  <path d="M88.8414 133.071C109.1 145.392 156.027 82.9519 132.986 68.9485" stroke="#FFE6C8" stroke-width="2"/>
  <path d="M67.2999 181.313L162.192 247.282L251.643 194.115M67.2999 181.313L71.2591 139.556C126.544 121.83 138.98 101.333 130.551 47.4788L168.114 28.4994M67.2999 181.313L154.568 129.775M251.643 194.115L264.275 94.6509L168.114 28.4994M251.643 194.115L154.568 129.775M168.114 28.4994L154.568 129.775" stroke="#FFE6C8" stroke-width="2"/>
  <path d="M225.789 210.152L314.617 261.6C331.925 253.69 336.787 246.088 336.707 226.634L256.133 163.37" stroke="#FFE6C8" stroke-width="2"/>
  <path d="M71.6442 139.364C-39.2973 106.481 66.8696 -37.7672 130.134 47.0394" stroke="#FFE6C8" stroke-width="2"/>
  <path d="M49.9839 130.559C85.9335 124.12 124.21 58.5828 111.218 29.0269" stroke="#FFE6C8" stroke-width="2"/>
  <path d="M59.2311 135.611C95.4449 129.316 133.709 65.8537 120.423 35.8577" stroke="#FFE6C8" stroke-width="2"/>
  <path d="M128.543 210.609L110.78 199.205L115.299 195.833L130.609 200.476L119.58 192.64L123.984 191.596L140.197 201.915L136.392 204.754L121.023 200.529L131.397 208.48L128.543 210.609Z" stroke="#FFE6C8" stroke-width="2"/>
  <path d="M145.869 201.793L155.368 194.707L153.32 191.962L146.433 197.099L141.658 193.67L146.407 190.127L144.545 187.632L138.609 192.06L135.63 188.067L140.142 184.701L136.008 183.124L127.934 189.147L145.869 201.793Z" stroke="#FFE6C8" stroke-width="2"/>
  <path d="M174.505 181.801L161.565 168.446L157.977 171.122L166.824 179.987L152.711 173.542L149.363 176.04L158.093 185.746L143.618 178.817L140.031 181.493L162.07 191.077L165.896 188.223L155.784 177.662L171.157 184.299L174.505 181.801Z" stroke="#FFE6C8" stroke-width="2"/>
  <path d="M181.305 178.441C178.127 178.849 176.874 178.546 177.206 175.459C180.24 173.644 185.099 172.971 185.58 172.611C186.062 172.252 183.952 170.428 183.952 170.428L180.337 171.614C175.398 172.928 173.303 172.675 169.733 171.976C166.784 170.562 166.457 169.249 165.935 166.884C166.645 163.748 168.364 162.409 174.125 160.774C177.062 160.484 177.245 161.43 178.163 162.668C177.936 163.91 177.854 164.629 175.272 164.825C170.646 167.121 170.643 167.435 171.418 167.7L184.13 166.143C187.66 166.722 189.272 167.799 190.941 171.252C189.105 175.893 186.913 177.376 181.305 178.441Z" stroke="#FFE6C8" stroke-width="2"/>
  <path d="M192.97 138.616L208.672 149.464L209.674 145.708L198.323 137.631L210.882 139.166L210.495 134.567L192.734 122.999L194.64 127.594L206.236 135.488L192.467 133.352L192.97 138.616Z" stroke="#FFE6C8" stroke-width="2"/>
  <path d="M211.456 129.58L194.138 118.148L196.327 106.622L198.88 110.044L197.475 115.659L201.129 117.879L202.095 112.212L206.519 113.858L204.526 120.291L209.092 123.734L211.2 115.313L213.753 118.735L211.456 129.58Z" stroke="#FFE6C8" stroke-width="2"/>
  <path d="M196.859 103.434L212.898 110.697L214.133 106.759L201.695 95.6798L214.843 99.0668L215.41 95.2507L200.027 79.2056L198.241 83.9306L209.044 94.3445L197.359 89.8667L196.737 92.5926L207.288 104.702L197.065 99.1339L196.136 102.466" stroke="#FFE6C8" stroke-width="2"/>
  <path d="M215.688 88.0698C214.186 88.1312 213.453 87.6303 212.313 86.0051C214.542 83.0636 215.086 81.2287 212.583 77.0208C209.663 76.1463 208.559 76.6326 208.103 80.3622C206.385 82.7991 205.331 83.9471 198.946 74.9733C197.98 71.3868 199.895 67.3916 200.891 66.2669C201.887 65.1423 203.351 67.105 203.351 67.105L203.087 69.211C203.087 69.211 204.323 73.3867 204.049 76.8948C205.629 73.6426 206.766 72.1645 209.735 70.7439C213.497 72.7794 215.457 74.1411 217.502 78.6969C219.044 82.5171 218.164 84.5346 215.688 88.0698Z" stroke="#FFE6C8" stroke-width="2"/>
</svg>
