<svg xmlns="http://www.w3.org/2000/svg"
     width="402px"
     height="166px">
  <g>
    <path
      d="M 149.5,6.5 C 151.288,6.21478 152.955,6.54811 154.5,7.5C 155.833,9.5 157.5,11.1667 159.5,12.5C 162.645,20.0901 166.811,27.0901 172,33.5C 176.586,35.1393 181.086,36.9727 185.5,39C 186.855,42.2118 188.355,45.3785 190,48.5C 191.825,49.1029 193.659,49.7696 195.5,50.5C 198.112,54.7387 200.612,59.072 203,63.5C 205.396,66.4093 208.396,68.4093 212,69.5C 215.155,67.2814 218.655,65.9481 222.5,65.5C 224.912,65.4062 226.745,66.4062 228,68.5C 233.052,59.5379 240.219,52.7046 249.5,48C 258.513,38.9944 267.513,29.9944 276.5,21C 277.5,20.3333 278.5,20.3333 279.5,21C 281.789,26.0889 283.956,31.2555 286,36.5C 293.471,42.0955 298.471,49.4288 301,58.5C 306.717,65.2157 312.05,72.2157 317,79.5C 319.561,82.084 322.561,83.7506 326,84.5C 329.987,83.1921 333.987,81.8587 338,80.5C 346.006,83.1722 351.339,88.5056 354,96.5C 358.343,101.208 362.676,105.875 367,110.5C 367.911,115.162 369.578,119.495 372,123.5C 378.673,132.02 384.173,141.187 388.5,151C 387.892,151.87 387.059,152.37 386,152.5C 381.511,147.517 377.511,142.184 374,136.5C 367.634,131.786 363.134,125.619 360.5,118C 355.511,117.501 350.511,117.334 345.5,117.5C 344.128,113.508 343.128,109.341 342.5,105C 342.775,102.069 343.441,99.2355 344.5,96.5C 342.999,95.2485 341.332,94.2485 339.5,93.5C 336.094,96.1192 332.26,97.7858 328,98.5C 324.497,97.502 321.33,95.8354 318.5,93.5C 316.008,96.1631 313.674,98.9964 311.5,102C 306.936,105.332 303.103,104.499 300,99.5C 299.097,100.701 297.931,101.535 296.5,102C 295.498,110.091 296.664,117.924 300,125.5C 300.333,128.833 300.667,132.167 301,135.5C 303.004,141.859 304.837,148.193 306.5,154.5C 305.178,154.67 304.011,154.337 303,153.5C 296.562,146.396 290.895,138.73 286,130.5C 282.611,122.722 278.945,115.055 275,107.5C 275.08,99.0741 272.746,91.4074 268,84.5C 267.591,79.6909 266.591,75.0242 265,70.5C 264.333,66.8333 264.333,63.1667 265,59.5C 266.954,55.366 268.454,51.0326 269.5,46.5C 272.426,46.5234 274.593,48.1901 276,51.5C 276.76,47.7745 276.593,44.1078 275.5,40.5C 272.912,39.2817 270.245,38.7817 267.5,39C 261.786,44.3844 255.786,49.3844 249.5,54C 242.5,61.6667 235.5,69.3333 228.5,77C 225.34,76.7982 222.34,76.1315 219.5,75C 218.331,77.0065 217.665,79.1732 217.5,81.5C 215.774,81.1854 214.107,81.0187 212.5,81C 214.644,84.4854 216.811,87.9854 219,91.5C 224.574,97.3199 230.574,102.653 237,107.5C 237.259,109.991 237.093,112.491 236.5,115C 238.296,118.968 239.296,123.135 239.5,127.5C 238.167,127.5 236.833,127.5 235.5,127.5C 234.037,123.895 232.537,120.229 231,116.5C 227.28,114.362 223.78,111.862 220.5,109C 218.919,107.172 217.585,105.172 216.5,103C 213.774,102.818 211.107,102.318 208.5,101.5C 207.982,99.1002 206.815,97.1002 205,95.5C 206.091,105.767 210.091,114.767 217,122.5C 220.002,126.13 220.835,130.13 219.5,134.5C 212.843,128.011 206.01,121.678 199,115.5C 198,113.5 197,111.5 196,109.5C 195.538,103.73 194.538,98.0635 193,92.5C 191.185,90.5951 189.185,88.9284 187,87.5C 184.506,81.1766 182.006,74.8433 179.5,68.5C 176.656,68.2528 173.823,67.9195 171,67.5C 170.333,62.1667 169.667,56.8333 169,51.5C 167.287,57.081 165.453,62.581 163.5,68C 161.711,68.5205 160.044,68.1871 158.5,67C 155.471,62.1523 151.138,59.9857 145.5,60.5C 145.788,55.6331 147.788,51.6331 151.5,48.5C 152.739,46.6885 153.406,44.6885 153.5,42.5C 152.26,39.4106 150.76,36.4106 149,33.5C 148.667,29.1667 148.333,24.8333 148,20.5C 147.586,20.0426 147.086,19.7093 146.5,19.5C 141.484,21.6043 136.317,23.2709 131,24.5C 117.779,41.068 104.112,57.4013 90,73.5C 85.3252,77.0089 81.1585,81.0089 77.5,85.5C 74.6624,87.7515 71.6624,89.7515 68.5,91.5C 71.4576,94.9439 75.1243,97.4439 79.5,99C 82,101.5 84.5,104 87,106.5C 87.6172,107.449 87.4506,108.282 86.5,109C 80.023,107.741 76.1896,110.241 75,116.5C 74.2825,117.451 73.4491,117.617 72.5,117C 69.4715,113.641 66.4715,110.308 63.5,107C 56.685,104.185 51.8516,99.3516 49,92.5C 46.9781,89.8114 44.6448,87.4781 42,85.5C 33.3553,96.1126 25.1886,107.113 17.5,118.5C 16.1502,119.95 14.4835,120.617 12.5,120.5C 21.5862,102.496 31.5862,84.9962 42.5,68C 43.5,67.3333 44.5,67.3333 45.5,68C 50.1938,74.0272 55.5271,79.3605 61.5,84C 64.2616,83.0305 67.2616,82.3638 70.5,82C 87.2086,66.2823 103.042,49.449 118,31.5C 120.624,27.752 123.124,23.9187 125.5,20C 131.301,18.5786 136.967,16.9119 142.5,15C 144.668,12.0019 147.001,9.16859 149.5,6.5 Z"/>
  </g>
</svg>
